<?xml version="1.0" standalone="no"?><!DOCTYPE svg PUBLIC "-//W3C//DTD SVG 1.1//EN" "http://www.w3.org/Graphics/SVG/1.1/DTD/svg11.dtd"><svg t="1627920308687" class="icon" viewBox="0 0 1024 1024" version="1.1" xmlns="http://www.w3.org/2000/svg" p-id="4813" xmlns:xlink="http://www.w3.org/1999/xlink" width="200" height="200"><defs><style type="text/css"></style></defs><path d="M881.499765 321.600446h-4.099997c-20.299987 0-38.599975 6.099996-54.899965 16.29999-14.299991-42.799973-52.799966-73.299953-99.599937-73.299954-20.299987 0-40.699974 6.099996-58.899962 16.29999-14.299991-42.799973-52.799966-73.299953-99.599937-73.299954-18.299988 0-36.599977 4.099997-50.799968 12.199992V109.90058C513.599999 48.900619 468.900027 0.00065 407.900066 0.00065c-29.099982-0.1-57.099964 11.399993-77.699951 32.09998s-32.09998 48.699969-31.999979 77.89995v423.399731l-67.099958-67.199957c-42.699973-42.799973-117.799925-36.599977-154.499902 0-36.499977 36.599977-60.899961 109.89993-8.099994 162.799897l304.899806 305.399806c6.299996 5.999996 13.099992 11.499993 20.299987 16.29999 56.899964 44.799972 119.899924 73.299953 254.099839 73.299953 308.899804 0 337.399786-166.899894 337.399786-374.599762V431.600376c-0.1-61.099961-44.799972-109.99993-103.699935-109.99993m46.699971 327.799792c0 175.099889 0 315.4998-278.499823 315.4998-117.799925 0-188.99988-26.499983-241.799847-79.39995L117.300251 596.400271c-26.399983-26.499983-18.299988-58.999963 1.999998-79.399949 20.299987-20.399987 58.899963-22.399986 79.29995-1.999999 0 0 50.799968 50.899968 95.499939 93.699941l62.99996 63.09996V120.100574c0-28.499982 22.399986-50.899968 52.799967-50.899968 28.399982 0 48.799969 22.399986 48.799969 50.899968v356.299774c0 16.29999 12.199992 28.499982 28.499982 28.499982s28.399982-12.199992 28.399982-28.499982V325.700443c0-28.499982 20.299987-50.899968 48.799969-50.899967 0 0 50.799968 0 50.799967 50.899967v195.399876c0 16.29999 12.199992 28.499982 28.399982 28.499982 16.29999 0 28.399982-12.199992 28.399982-28.499982V382.700407c0-28.499982 20.299987-50.899968 48.799969-50.899968 0 0 50.799968 4.099997 50.799968 50.899968v173.09989c0 16.29999 12.199992 28.499982 28.399982 28.499982 16.29999 0 28.499982-12.199992 28.499982-28.499982V435.600373c-0.1-13.499991 5.199997-26.499983 14.799991-36.099977 9.599994-9.599994 22.499986-14.899991 36.099977-14.79999 13.499991 0.1 50.799968-1.999999 50.799968 50.899967l-1.999999 213.799865" p-id="4814"></path></svg>